<svg width="1200" height="640" viewBox="0 0 1200 640" fill="none" xmlns="http://www.w3.org/2000/svg">
<circle cx="187.105" cy="277.377" r="41.5" fill="#0183FF"/>
<circle cx="375.105" cy="236.377" r="65.5" transform="rotate(-90 375.105 236.377)" fill="#2CA74C"/>
<path d="M170.605 425.377C291.605 483.377 387.105 426.877 439.605 360.877" stroke="#E23841" stroke-width="20" stroke-linecap="round"/>
<path d="M396.605 351.877C435.605 345.377 455.105 366.377 455.105 400.377" stroke="#E23841" stroke-width="20" stroke-linecap="round"/>
<path d="M571.8 348.1C573.467 348.1 575.067 347.933 576.6 347.6C578.133 347.267 579.667 346.867 581.2 346.4V357.5C579.6 358.167 577.6 358.733 575.2 359.2C572.867 359.733 570.3 360 567.5 360C564.233 360 561.3 359.467 558.7 358.4C556.167 357.333 554.133 355.5 552.6 352.9C551.133 350.233 550.4 346.567 550.4 341.9V315.6H543.3V309.3L551.5 304.3L555.8 292.8H565.3V304.4H580.6V315.6H565.3V341.9C565.3 343.967 565.9 345.533 567.1 346.6C568.3 347.6 569.867 348.1 571.8 348.1ZM632.859 339.9C632.593 338.767 632.193 337.1 631.659 334.9C631.193 332.633 630.659 330.233 630.059 327.7C629.459 325.1 628.893 322.733 628.359 320.6C627.826 318.4 627.459 316.8 627.259 315.8H626.859C626.659 316.8 626.293 318.4 625.759 320.6C625.293 322.733 624.759 325.1 624.159 327.7C623.559 330.233 622.993 332.633 622.459 334.9C621.926 337.167 621.526 338.9 621.259 340.1L616.859 359H600.859L585.359 304.4H600.159L606.459 328.6C606.926 330.267 607.326 332.267 607.659 334.6C608.059 336.933 608.426 339.2 608.759 341.4C609.093 343.533 609.326 345.233 609.459 346.5H609.859C609.926 345.567 610.059 344.333 610.259 342.8C610.459 341.2 610.693 339.567 610.959 337.9C611.293 336.233 611.559 334.733 611.759 333.4C612.026 332 612.226 331.067 612.359 330.6L619.059 304.4H635.459L641.859 330.6C642.126 331.533 642.426 333.033 642.759 335.1C643.159 337.167 643.493 339.267 643.759 341.4C644.093 343.533 644.259 345.233 644.259 346.5H644.659C644.793 345.367 645.026 343.733 645.359 341.6C645.693 339.4 646.059 337.1 646.459 334.7C646.926 332.3 647.393 330.267 647.859 328.6L654.359 304.4H668.959L653.259 359H637.059L632.859 339.9ZM727.404 331.6C727.404 336.133 726.771 340.167 725.504 343.7C724.304 347.233 722.537 350.233 720.204 352.7C717.937 355.1 715.171 356.933 711.904 358.2C708.637 359.4 704.937 360 700.804 360C697.004 360 693.471 359.4 690.204 358.2C687.004 356.933 684.237 355.1 681.904 352.7C679.571 350.233 677.737 347.233 676.404 343.7C675.137 340.167 674.504 336.133 674.504 331.6C674.504 325.533 675.571 320.433 677.704 316.3C679.837 312.1 682.904 308.9 686.904 306.7C690.904 304.5 695.637 303.4 701.104 303.4C706.237 303.4 710.771 304.5 714.704 306.7C718.637 308.9 721.737 312.1 724.004 316.3C726.271 320.433 727.404 325.533 727.404 331.6ZM689.704 331.6C689.704 335.2 690.071 338.233 690.804 340.7C691.604 343.1 692.837 344.933 694.504 346.2C696.171 347.4 698.337 348 701.004 348C703.671 348 705.804 347.4 707.404 346.2C709.071 344.933 710.271 343.1 711.004 340.7C711.804 338.233 712.204 335.2 712.204 331.6C712.204 328 711.804 325 711.004 322.6C710.271 320.2 709.071 318.4 707.404 317.2C705.737 316 703.571 315.4 700.904 315.4C696.971 315.4 694.104 316.767 692.304 319.5C690.571 322.167 689.704 326.2 689.704 331.6ZM722.104 283.4C721.171 284.333 719.937 285.467 718.404 286.8C716.871 288.133 715.204 289.533 713.404 291C711.671 292.467 709.937 293.867 708.204 295.2C706.537 296.467 705.071 297.533 703.804 298.4H693.904V297.1C694.971 295.833 696.204 294.367 697.604 292.7C699.071 290.967 700.504 289.2 701.904 287.4C703.304 285.533 704.471 283.867 705.404 282.4H722.104V283.4ZM735.318 383C733.651 383 731.918 382.867 730.118 382.6C728.251 382.4 726.718 382.133 725.518 381.8V370.1C726.718 370.367 727.851 370.567 728.918 370.7C729.985 370.9 731.185 371 732.518 371C734.518 371 736.218 370.433 737.618 369.3C739.018 368.167 739.718 365.967 739.718 362.7V304.4H754.618V364.9C754.618 368.233 753.985 371.267 752.718 374C751.451 376.733 749.385 378.9 746.518 380.5C743.718 382.167 739.985 383 735.318 383ZM739.118 290.3C739.118 287.5 739.885 285.6 741.418 284.6C743.018 283.533 744.951 283 747.218 283C749.418 283 751.318 283.533 752.918 284.6C754.518 285.6 755.318 287.5 755.318 290.3C755.318 293.033 754.518 294.933 752.918 296C751.318 297.067 749.418 297.6 747.218 297.6C744.951 297.6 743.018 297.067 741.418 296C739.885 294.933 739.118 293.033 739.118 290.3Z" fill="#0183FF"/>
<path d="M834.263 342.8C834.263 346.467 833.397 349.6 831.663 352.2C829.93 354.733 827.33 356.667 823.863 358C820.397 359.333 816.097 360 810.963 360C807.163 360 803.897 359.733 801.163 359.2C798.43 358.733 795.697 357.933 792.963 356.8V344.5C795.897 345.833 799.063 346.933 802.463 347.8C805.863 348.667 808.863 349.1 811.463 349.1C814.397 349.1 816.463 348.667 817.663 347.8C818.93 346.933 819.563 345.8 819.563 344.4C819.563 343.467 819.297 342.633 818.763 341.9C818.297 341.167 817.23 340.333 815.563 339.4C813.897 338.467 811.297 337.267 807.763 335.8C804.363 334.333 801.563 332.9 799.363 331.5C797.163 330.033 795.53 328.3 794.463 326.3C793.397 324.233 792.863 321.667 792.863 318.6C792.863 313.533 794.83 309.733 798.763 307.2C802.697 304.667 807.93 303.4 814.463 303.4C817.863 303.4 821.097 303.733 824.163 304.4C827.23 305.067 830.397 306.167 833.663 307.7L829.163 318.4C827.363 317.6 825.63 316.9 823.963 316.3C822.297 315.7 820.663 315.233 819.063 314.9C817.53 314.567 815.93 314.4 814.263 314.4C812.063 314.4 810.397 314.7 809.263 315.3C808.197 315.9 807.663 316.8 807.663 318C807.663 318.867 807.93 319.667 808.463 320.4C809.063 321.067 810.163 321.8 811.763 322.6C813.43 323.4 815.863 324.467 819.063 325.8C822.197 327.067 824.897 328.4 827.163 329.8C829.43 331.133 831.163 332.833 832.363 334.9C833.63 336.9 834.263 339.533 834.263 342.8ZM834.363 283.4C833.43 284.333 832.197 285.467 830.663 286.8C829.13 288.133 827.463 289.533 825.663 291C823.93 292.467 822.197 293.867 820.463 295.2C818.797 296.467 817.33 297.533 816.063 298.4H806.163V297.1C807.23 295.833 808.463 294.367 809.863 292.7C811.33 290.967 812.763 289.2 814.163 287.4C815.563 285.533 816.73 283.867 817.663 282.4H834.363V283.4ZM886.57 339.9C886.304 338.767 885.904 337.1 885.37 334.9C884.904 332.633 884.37 330.233 883.77 327.7C883.17 325.1 882.604 322.733 882.07 320.6C881.537 318.4 881.17 316.8 880.97 315.8H880.57C880.37 316.8 880.004 318.4 879.47 320.6C879.004 322.733 878.47 325.1 877.87 327.7C877.27 330.233 876.704 332.633 876.17 334.9C875.637 337.167 875.237 338.9 874.97 340.1L870.57 359H854.57L839.07 304.4H853.87L860.17 328.6C860.637 330.267 861.037 332.267 861.37 334.6C861.77 336.933 862.137 339.2 862.47 341.4C862.804 343.533 863.037 345.233 863.17 346.5H863.57C863.637 345.567 863.77 344.333 863.97 342.8C864.17 341.2 864.404 339.567 864.67 337.9C865.004 336.233 865.27 334.733 865.47 333.4C865.737 332 865.937 331.067 866.07 330.6L872.77 304.4H889.17L895.57 330.6C895.837 331.533 896.137 333.033 896.47 335.1C896.87 337.167 897.204 339.267 897.47 341.4C897.804 343.533 897.97 345.233 897.97 346.5H898.37C898.504 345.367 898.737 343.733 899.07 341.6C899.404 339.4 899.77 337.1 900.17 334.7C900.637 332.3 901.104 330.267 901.57 328.6L908.07 304.4H922.67L906.97 359H890.77L886.57 339.9ZM946.415 304.4V359H931.515V304.4H946.415ZM939.015 283C941.215 283 943.115 283.533 944.715 284.6C946.315 285.6 947.115 287.5 947.115 290.3C947.115 293.033 946.315 294.933 944.715 296C943.115 297.067 941.215 297.6 939.015 297.6C936.748 297.6 934.815 297.067 933.215 296C931.682 294.933 930.915 293.033 930.915 290.3C930.915 287.5 931.682 285.6 933.215 284.6C934.815 283.533 936.748 283 939.015 283ZM984.384 303.3C991.717 303.3 997.317 304.9 1001.18 308.1C1005.12 311.233 1007.08 316.067 1007.08 322.6V359H996.684L993.784 351.6H993.384C991.85 353.533 990.25 355.133 988.584 356.4C986.984 357.667 985.117 358.567 982.984 359.1C980.917 359.7 978.35 360 975.284 360C972.084 360 969.184 359.4 966.584 358.2C964.05 356.933 962.05 355.033 960.584 352.5C959.117 349.9 958.384 346.633 958.384 342.7C958.384 336.9 960.417 332.633 964.484 329.9C968.55 327.1 974.65 325.567 982.784 325.3L992.284 325V322.6C992.284 319.733 991.517 317.633 989.984 316.3C988.517 314.967 986.45 314.3 983.784 314.3C981.117 314.3 978.517 314.7 975.984 315.5C973.45 316.233 970.917 317.167 968.384 318.3L963.484 308.2C966.417 306.667 969.65 305.467 973.184 304.6C976.784 303.733 980.517 303.3 984.384 303.3ZM986.484 333.9C981.684 334.033 978.35 334.9 976.484 336.5C974.617 338.1 973.684 340.2 973.684 342.8C973.684 345.067 974.35 346.7 975.684 347.7C977.017 348.633 978.75 349.1 980.884 349.1C984.084 349.1 986.784 348.167 988.984 346.3C991.184 344.367 992.284 341.667 992.284 338.2V333.7L986.484 333.9ZM1045.34 348.1C1047 348.1 1048.6 347.933 1050.14 347.6C1051.67 347.267 1053.2 346.867 1054.74 346.4V357.5C1053.14 358.167 1051.14 358.733 1048.74 359.2C1046.4 359.733 1043.84 360 1041.04 360C1037.77 360 1034.84 359.467 1032.24 358.4C1029.7 357.333 1027.67 355.5 1026.14 352.9C1024.67 350.233 1023.94 346.567 1023.94 341.9V315.6H1016.84V309.3L1025.04 304.3L1029.34 292.8H1038.84V304.4H1054.14V315.6H1038.84V341.9C1038.84 343.967 1039.44 345.533 1040.64 346.6C1041.84 347.6 1043.4 348.1 1045.34 348.1Z" fill="#2CA74C"/>
<path d="M1063.59 352C1063.59 348.933 1064.43 346.8 1066.09 345.6C1067.76 344.333 1069.79 343.7 1072.19 343.7C1074.53 343.7 1076.53 344.333 1078.19 345.6C1079.86 346.8 1080.69 348.933 1080.69 352C1080.69 354.933 1079.86 357.067 1078.19 358.4C1076.53 359.667 1074.53 360.3 1072.19 360.3C1069.79 360.3 1067.76 359.667 1066.09 358.4C1064.43 357.067 1063.59 354.933 1063.59 352Z" fill="#E23841"/>
</svg>
